<svg width="28" height="29" viewBox="0 0 28 29" fill="none" xmlns="http://www.w3.org/2000/svg">
<circle cx="14" cy="14.1992" r="14" fill="white"/>
<circle cx="14" cy="14.1992" r="13.5" stroke="black" stroke-opacity="0.2"/>
<path d="M14.0008 8.64643C15.8095 8.64643 16.0237 8.6532 16.7382 8.68578C17.1678 8.69104 17.5933 8.76992 17.9962 8.91901C18.2884 9.0317 18.5538 9.20433 18.7753 9.42578C18.9967 9.64724 19.1694 9.91261 19.282 10.2048C19.4311 10.6078 19.51 11.0333 19.5153 11.4629C19.5475 12.1774 19.5546 12.3916 19.5546 14.2003C19.5546 16.009 19.5479 16.2232 19.5153 16.9377C19.51 17.3673 19.4311 17.7928 19.282 18.1958C19.1694 18.488 18.9967 18.7534 18.7753 18.9748C18.5538 19.1963 18.2884 19.3689 17.9962 19.4816C17.5933 19.6307 17.1678 19.7096 16.7382 19.7148C16.024 19.7471 15.8098 19.7542 14.0008 19.7542C12.1917 19.7542 11.9775 19.7474 11.2633 19.7148C10.8337 19.7096 10.4082 19.6307 10.0053 19.4816C9.71307 19.3689 9.44769 19.1963 9.22624 18.9748C9.00479 18.7534 8.83216 18.488 8.71947 18.1958C8.57038 17.7928 8.4915 17.3673 8.48624 16.9377C8.45398 16.2232 8.44689 16.009 8.44689 14.2003C8.44689 12.3916 8.45366 12.1774 8.48624 11.4629C8.4915 11.0333 8.57038 10.6078 8.71947 10.2048C8.83216 9.91261 9.00479 9.64724 9.22624 9.42578C9.44769 9.20433 9.71307 9.0317 10.0053 8.91901C10.4082 8.76992 10.8337 8.69104 11.2633 8.68578C11.9779 8.65352 12.192 8.64643 14.0008 8.64643ZM14.0008 7.42578C12.162 7.42578 11.9304 7.43352 11.2079 7.46643C10.6456 7.47761 10.0893 7.58407 9.56269 7.78127C9.11092 7.95148 8.70172 8.21822 8.36366 8.56288C8.01869 8.90106 7.75172 9.31049 7.5814 9.76256C7.3842 10.2892 7.27775 10.8455 7.26656 11.4077C7.2343 12.1297 7.22656 12.3613 7.22656 14.2C7.22656 16.0387 7.2343 16.2703 7.26721 16.9929C7.27839 17.5551 7.38485 18.1114 7.58205 18.638C7.75218 19.09 8.01892 19.4995 8.36366 19.8377C8.70191 20.1825 9.11133 20.4492 9.56334 20.6193C10.09 20.8165 10.6463 20.923 11.2085 20.9342C11.9311 20.9664 12.1617 20.9748 14.0014 20.9748C15.8411 20.9748 16.0717 20.9671 16.7943 20.9342C17.3565 20.923 17.9128 20.8165 18.4395 20.6193C18.8893 20.445 19.2978 20.1786 19.6389 19.8373C19.98 19.4961 20.246 19.0874 20.4201 18.6374C20.6173 18.1107 20.7238 17.5545 20.735 16.9922C20.7672 16.2703 20.775 16.0387 20.775 14.2C20.775 12.3613 20.7672 12.1297 20.7343 11.4071C20.7231 10.8448 20.6167 10.2886 20.4195 9.76191C20.2493 9.3099 19.9826 8.90048 19.6379 8.56223C19.2996 8.2175 18.8902 7.95075 18.4382 7.78062C17.9115 7.58342 17.3553 7.47696 16.793 7.46578C16.0711 7.43352 15.8395 7.42578 14.0008 7.42578Z" fill="black"/>
<path d="M14.0021 10.7227C13.3141 10.7227 12.6416 10.9267 12.0695 11.3089C11.4974 11.6912 11.0515 12.2345 10.7882 12.8701C10.5249 13.5058 10.4561 14.2052 10.5903 14.88C10.7245 15.5548 11.0558 16.1747 11.5423 16.6612C12.0288 17.1477 12.6487 17.479 13.3235 17.6132C13.9983 17.7475 14.6977 17.6786 15.3334 17.4153C15.969 17.152 16.5123 16.7061 16.8946 16.134C17.2768 15.562 17.4809 14.8894 17.4809 14.2014C17.4809 13.2788 17.1144 12.3939 16.462 11.7415C15.8096 11.0892 14.9248 10.7227 14.0021 10.7227ZM14.0021 16.4594C13.5555 16.4594 13.119 16.327 12.7476 16.0789C12.3763 15.8308 12.0869 15.4781 11.916 15.0655C11.7451 14.6529 11.7003 14.1989 11.7875 13.7608C11.8746 13.3228 12.0897 12.9205 12.4055 12.6047C12.7213 12.2889 13.1236 12.0738 13.5616 11.9867C13.9996 11.8996 14.4537 11.9443 14.8663 12.1152C15.2789 12.2861 15.6315 12.5755 15.8797 12.9469C16.1278 13.3182 16.2602 13.7548 16.2602 14.2014C16.2602 14.8002 16.0223 15.3746 15.5988 15.7981C15.1754 16.2215 14.601 16.4594 14.0021 16.4594Z" fill="black"/>
<path d="M17.6176 11.3973C18.0665 11.3973 18.4305 11.0333 18.4305 10.5844C18.4305 10.1354 18.0665 9.77148 17.6176 9.77148C17.1686 9.77148 16.8047 10.1354 16.8047 10.5844C16.8047 11.0333 17.1686 11.3973 17.6176 11.3973Z" fill="black"/>
</svg>
