<svg width="28" height="29" viewBox="0 0 28 29" fill="none" xmlns="http://www.w3.org/2000/svg">
<circle cx="14" cy="14.1992" r="14" fill="white"/>
<circle cx="14" cy="14.1992" r="13.5" stroke="black" stroke-opacity="0.2"/>
<path d="M20.2071 11.1823C19.7881 11.3686 19.3458 11.4849 18.8802 11.5548C19.3458 11.2754 19.7183 10.8331 19.8812 10.2977C19.4389 10.5538 18.9501 10.74 18.4146 10.8564C17.9956 10.4141 17.3904 10.1348 16.7386 10.1348C15.4815 10.1348 14.4572 11.159 14.4572 12.4161C14.4572 12.6023 14.4805 12.7653 14.5271 12.9282C12.6415 12.8351 10.9421 11.9272 9.80141 10.5305C9.61518 10.8797 9.49878 11.2522 9.49878 11.6712C9.49878 12.4627 9.89453 13.161 10.5231 13.5801C10.1506 13.5568 9.80141 13.4637 9.4755 13.3007V13.324C9.4755 14.4414 10.267 15.3725 11.3145 15.5821C11.1283 15.6286 10.9188 15.6519 10.7093 15.6519C10.5696 15.6519 10.4067 15.6286 10.267 15.6053C10.5696 16.5132 11.4077 17.1883 12.4087 17.1883C11.6172 17.7936 10.6395 18.166 9.56862 18.166C9.38239 18.166 9.19616 18.166 9.0332 18.1427C10.0575 18.7946 11.2447 19.167 12.5483 19.167C16.7618 19.167 19.0665 15.6752 19.0665 12.6489C19.0665 12.5558 19.0665 12.4394 19.0665 12.3463C19.5088 12.0436 19.9045 11.6479 20.2071 11.1823Z" fill="black"/>
</svg>
